<svg width="69" height="15" viewBox="0 0 69 15" fill="none" xmlns="http://www.w3.org/2000/svg">
<rect width="69" height="15" fill="#747164"/>
<g id="&#208;&#158;&#209;&#129;&#208;&#189;&#208;&#190;&#208;&#178;&#208;&#189;&#208;&#176;&#209;&#143; 1" clip-path="url(#clip0_0_1)">
<rect width="1400" height="4634" transform="translate(-373 -2257)" fill="#131218"/>
<g id="4 &#209;&#141;&#208;&#186;&#209;&#128;&#208;&#176;&#208;&#189;">
<rect width="1152" height="2063" transform="translate(-249 -456)" fill="#131218"/>
</g>
<g id="3 &#209;&#141;&#208;&#186;&#209;&#128;&#208;&#176;&#208;&#189;">
<g id="&#208;&#154;&#208;&#176;&#209;&#128;&#209;&#131;&#209;&#129;&#208;&#181;&#208;&#187;&#209;&#140;">
<g id="1">
<path id="1.2" d="M-136 -298.852H54C70.5685 -298.852 84 -285.421 84 -268.852V42H-136V-298.852Z" fill="#3B3A40"/>
<g id="&#208;&#184;&#208;&#189;&#209;&#132;&#208;&#190;&#209;&#128;&#208;&#188;&#208;&#176;&#209;&#134;&#208;&#184;&#209;&#143;">
<g id="&#208;&#160;&#208;&#181;&#208;&#185;&#209;&#130;&#208;&#184;&#208;&#189;&#208;&#179;">
<path id="Star 1" d="M6.19231 0L7.58257 4.849L12.0815 4.849L8.4418 7.84585L9.83206 12.6949L6.19231 9.69801L2.55256 12.6949L3.94282 7.84585L0.303073 4.849L4.80205 4.849L6.19231 0Z" fill="#FFD600"/>
<path id="Star 2" d="M62.8077 0L64.198 4.849L68.697 4.849L65.0572 7.84585L66.4475 12.6949L62.8077 9.69801L59.168 12.6949L60.5582 7.84585L56.9185 4.849L61.4175 4.849L62.8077 0Z" fill="#FFD600"/>
<path id="Star 3" d="M48.6539 0L50.0441 4.849L54.5431 4.849L50.9033 7.84585L52.2936 12.6949L48.6539 9.69801L45.0141 12.6949L46.4044 7.84585L42.7646 4.849L47.2636 4.849L48.6539 0Z" fill="#FFD600"/>
<path id="Star 4" d="M34.5 0L35.8902 4.849L40.3892 4.849L36.7495 7.84585L38.1397 12.6949L34.5 9.69801L30.8602 12.6949L32.2505 7.84585L28.6108 4.849L33.1097 4.849L34.5 0Z" fill="#FFD600"/>
<path id="Star 5" d="M20.3462 0L21.7364 4.849L26.2354 4.849L22.5957 7.84585L23.9859 12.6949L20.3462 9.69801L16.7064 12.6949L18.0967 7.84585L14.4569 4.849L18.9559 4.849L20.3462 0Z" fill="#FFD600"/>
</g>
</g>
</g>
</g>
</g>
</g>
<defs>
<clipPath id="clip0_0_1">
<rect width="1400" height="4634" fill="white" transform="translate(-373 -2257)"/>
</clipPath>
</defs>
</svg>
